<svg width="131" height="132" viewBox="0 0 131 132" fill="none" xmlns="http://www.w3.org/2000/svg">
<mask id="mask0_302_1023" style="mask-type:alpha" maskUnits="userSpaceOnUse" x="0" y="0" width="131" height="132">
<path d="M65.4686 131.749C101.533 131.749 130.77 102.451 130.77 66.3103C130.77 30.1694 101.533 0.87146 65.4686 0.87146C29.4038 0.87146 0.16745 30.1694 0.16745 66.3103C0.16745 102.451 29.4038 131.749 65.4686 131.749Z" fill="white"/>
</mask>
<g mask="url(#mask0_302_1023)">
<path d="M65.4686 131.749C101.533 131.749 130.77 102.451 130.77 66.3103C130.77 30.1694 101.533 0.87146 65.4686 0.87146C29.4038 0.87146 0.16745 30.1694 0.16745 66.3103C0.16745 102.451 29.4038 131.749 65.4686 131.749Z" fill="#F69A66"/>
<path d="M120.667 150.874L97.7927 150.739L97.3236 123.754L115.503 121.246L116.861 127.184" fill="#BF865F"/>
<path d="M49.2036 60.6586C45.8701 59.0938 36.1924 59.7699 36.1026 59.8168C32.7118 59.9694 26.7762 60.6128 20.5777 65.0535C19.6596 65.7217 18.2833 66.7706 16.8686 68.286C15.6357 69.5653 13.269 70.2978 10.4964 81.945C9.49875 86.0616 8.38402 96.3174 3.94991 103.308C3.06012 104.711 1.89779 110.324 0.462901 120.147C10.8348 121.327 18.736 122.212 24.1666 122.803C23.0113 133.197 23.087 141.862 24.1026 147.486C23.3659 150.915 23.1426 152.953 23.4327 153.6C38.8275 153.703 47.9972 153.775 50.9421 153.816C58.1958 153.922 78.0761 155.429 96.5354 153.763C101.106 149.258 100.621 134.267 100.621 134.267C100.466 131.318 100.314 128.513 100.166 125.848C108.857 123.822 115.864 121.592 121.188 119.155C119.257 109.832 117.999 104.368 117.413 102.763C115.706 98.1818 111.955 90.1219 111.028 85.9596C108.157 73.0692 104.562 69.4506 103.285 68.2153C101.818 66.7504 95.7073 61.652 86.5471 60.5209C84.5389 60.273 80.6202 59.9826 74.7909 59.65C72.2148 59.2507 69.7601 59.0957 67.6553 58.9647C61.5764 58.622 55.2111 58.2485 49.2036 60.6586Z" fill="#88807B"/>
<path fill-rule="evenodd" clip-rule="evenodd" d="M49.241 60.6824C53.8372 70.4343 56.2596 79.5628 56.5082 88.0677C56.7569 96.5727 56.7564 111.189 56.5066 131.918L84.079 131.748C83.8511 112.799 83.2296 98.2388 82.2146 88.0668C81.1996 77.8948 77.74 68.2801 71.8358 59.2227C64.68 58.554 59.5711 58.4169 56.5093 58.8113C53.4475 59.2056 51.0247 59.8293 49.241 60.6824Z" fill="white"/>
<path d="M54.3496 45.897L53.5827 61.1999C53.5768 61.5395 53.7103 61.8814 53.9866 62.0318C55.1812 62.829 56.8853 63.7321 59.0144 64.2544C62.8552 65.2434 66.1663 64.6219 68.0352 64.0723C68.4087 63.9818 68.6942 63.5986 68.701 63.2105L69.0492 54.1899C71.4705 55.1408 71.336 55.0474 71.5734 55.1314C74.4879 55.9276 76.9988 55.8782 77.4651 55.7932C79.1404 55.6827 80.9306 54.3164 82.552 51.9689C84.7449 48.8395 86.7362 43.9363 87.8618 38.0398C88.0623 37.2048 88.1234 36.3673 88.1845 35.5299L88.5158 27.1971C88.5948 25.3351 88.1618 23.5107 87.309 21.7722C86.9503 21.0206 86.5891 20.4087 86.1333 19.8883C83.3919 16.2335 79.3441 14.9114 76.0737 14.4884C74.3337 14.2342 72.7444 14.2171 71.5996 14.321C71.1805 14.3602 69.6903 14.5206 67.5503 14.623C66.3869 14.6958 65.4576 14.6796 64.8991 14.7164C57.9704 14.875 55.2434 13.9889 51.7258 15.7908C51.0695 16.1055 49.5679 16.9178 48.2383 18.525C44.4868 23.0714 45.2657 29.0477 45.4671 30.8215C46.2109 36.145 49.2209 39.4585 50.1267 40.8252C51.208 42.4852 53.0449 44.5238 54.3496 45.897Z" fill="#DB9E75"/>
<path d="M31.4855 126.857C31.3872 127.23 31.6092 127.612 31.9815 127.711C32.3538 127.81 32.7353 127.587 32.8337 127.214C34.4447 121.103 39.6017 102.592 40.7027 99.1625C40.8206 98.7952 40.6191 98.4016 40.2525 98.2835C39.886 98.1653 39.4933 98.3673 39.3753 98.7346C38.2644 102.195 33.1027 120.723 31.4855 126.857ZM102.569 127.894C102.677 128.265 103.064 128.478 103.433 128.37C103.803 128.263 104.016 127.875 103.908 127.505C102.148 121.435 97.0542 102.907 96.2355 99.3997C96.1478 99.024 95.7728 98.7907 95.3978 98.8786C95.0229 98.9665 94.7901 99.3423 94.8778 99.718C95.7038 103.257 100.803 121.802 102.569 127.894ZM69.1342 54.2196L62.7866 51.5334L68.7734 61.6541L69.1342 54.2196ZM83.0743 36.1841C83.1069 36.9766 83.2236 38.2829 83.6802 38.7567C84.458 39.469 85.5211 37.1585 84.9421 35.7043C84.7203 35.0949 84.3966 34.9961 84.0241 35.0362C83.4648 35.1196 83.084 35.6253 83.0743 36.1841ZM74.7581 35.8992C74.6978 36.6901 74.675 37.994 75.13 38.5609C75.8133 39.3647 77.1535 37.1522 76.7148 35.6539C76.5395 35.0453 76.2166 34.8999 75.8449 34.8934C75.2872 34.8837 74.8143 35.3412 74.7581 35.8992ZM78.4014 45.5586C78.8637 45.7064 80.3427 46.1981 80.8661 45.5085C81.1033 45.2331 81.4449 44.3075 81.4449 44.3075C81.4449 44.3075 80.2342 44.4261 78.7487 44.307C77.913 44.2458 77.3585 44.0498 77.167 44.3725C77.1189 44.4649 77.1629 44.6054 77.1613 44.6985C77.2918 45.2132 78.0777 45.4598 78.4014 45.5586ZM82.3317 41.1839L81.7255 36.2213L81.7729 33.5063C81.7774 33.2491 81.573 33.037 81.3163 33.0325C81.0596 33.028 80.8479 33.2329 80.8434 33.49L80.7955 36.2375L80.7989 36.3022L81.4106 41.3091C81.4119 41.318 81.3688 41.3708 81.3675 41.3728L81.2169 41.3818C80.4538 41.4272 79.986 41.4405 79.1708 41.4263C78.9142 41.4218 78.7025 41.6267 78.698 41.8839C78.6935 42.141 78.8979 42.3532 79.1546 42.3576C79.9962 42.3723 80.4868 42.3584 81.272 42.3117C81.3473 42.3072 81.3473 42.3072 81.4634 42.2984C81.9947 42.2192 82.41 41.7106 82.3317 41.1839Z" fill="#482D1F"/>
<path d="M52.7456 32.925C52.8018 31.7273 53.1721 30.5254 53.9494 29.4788C55.4731 27.4093 58.2817 26.2939 60.4993 27.0778C61.7467 27.5188 62.5661 28.5113 62.6574 28.606C63.0119 29.0698 63.2849 29.5399 63.4938 29.974C70.4909 26.7886 75.9387 25.0893 79.8371 24.876C82.8185 24.7129 85.7169 25.3738 88.5324 26.8589C88.5576 25.0965 88.1264 23.3703 87.3173 21.7213C86.9586 20.9698 86.5974 20.358 86.1416 19.8376C83.4 16.1832 79.352 14.8612 76.0814 14.4383C74.3413 14.1841 72.7519 14.167 71.607 14.2709C71.1879 14.3101 69.6976 14.4705 67.5575 14.5728C66.3941 14.6457 65.4647 14.6295 64.9062 14.6663C57.9771 14.8248 55.2499 13.9388 51.7321 15.7406C51.0758 16.0552 49.5741 16.8674 48.2444 18.4745C44.4927 23.0203 45.2716 28.996 45.4731 30.7696C45.6346 31.9252 45.9029 32.9862 46.2333 33.953C48.1675 33.7173 50.3382 33.3746 52.7456 32.925ZM86.7542 32.9393C87.2205 32.8542 87.3705 32.2513 87.0509 31.9197C86.6392 31.5399 85.9021 31.1544 84.9727 31.1382C83.0674 31.1049 81.0007 32.3265 83.1286 32.9226C84.3768 33.317 85.8672 33.1567 86.7542 32.9393ZM77.1754 33.0981C77.6418 33.0131 77.7917 32.4102 77.4257 32.0778C77.0139 31.6979 76.2769 31.3124 75.301 31.2954C73.3957 31.2622 71.3282 32.5303 73.4569 33.0798C74.7973 33.5224 76.2428 33.2682 77.1754 33.0981Z" fill="#482D1F"/>
<path d="M52.8777 32.0005C52.6411 33.3614 52.8603 34.8512 53.4575 36.0566C54.1824 37.5752 55.2254 38.4147 56.5802 39.0703C56.8114 39.1821 56.9082 39.4606 56.7966 39.6922C56.685 39.9239 56.4072 40.021 56.176 39.9091C55.5803 39.6209 55.1083 39.3444 54.5639 38.9063C53.762 38.2609 53.0955 37.4569 52.622 36.4648C51.9401 35.0886 51.6913 33.3977 51.962 31.8407C52.006 31.5873 52.2467 31.4176 52.4996 31.4618C52.7524 31.5059 52.9217 31.7471 52.8777 32.0005Z" fill="#482D1F"/>
</g>
</svg>
