<svg width="72" height="72" viewBox="0 0 72 72" fill="none" xmlns="http://www.w3.org/2000/svg">
<g clip-path="url(#clip0_401_2315)">
<path d="M0 36C0 55.8823 16.1177 72 36 72C55.8823 72 72 55.8823 72 36C72 16.1178 55.8823 0 36 0C16.1177 0 0 16.1178 0 36Z" fill="#EEDDD4"/>
<path d="M20.796 38.3182C18.7971 38.0102 16.6894 38.0709 14.5752 38.5597C6.16297 40.4698 0.824276 48.374 2.63801 56.2074C3.52556 60.037 5.97122 63.1389 9.22202 65.0757L6.71064 92.236C6.34608 96.5251 7.46584 100.619 9.70059 103.922C10.0153 104.395 10.362 104.862 10.703 105.297C11.0817 105.759 11.4925 106.214 11.8976 106.638C12.3403 107.088 12.8151 107.533 13.3162 107.94L48.1881 101.801C48.3914 101.27 48.5947 100.739 48.7547 100.15C48.9261 99.6244 49.0597 99.0727 49.1613 98.5267C49.2686 98.0127 49.3381 97.4724 49.4077 96.932C49.4228 96.8304 49.4378 96.7287 49.4529 96.627L52.9353 63.4419L59.6796 63.0055C60.2673 62.9681 60.7438 62.4881 60.7116 61.9327L60.6038 59.6412C60.5979 59.5388 60.576 59.4415 60.5407 59.3511C61.5113 58.4993 62.3672 57.5316 63.0482 56.4713C64.033 54.9446 64.6901 53.2446 64.9233 51.3882C65.8674 44.0265 59.7139 37.4192 51.1956 36.6743C47.767 36.3745 44.4702 37.0621 41.6929 38.4709C40.2958 37.8256 38.8148 37.4006 37.2738 37.2463L29.8933 36.4001C26.5798 36.49 23.4935 37.1476 20.796 38.3182Z" fill="#474961"/>
<path opacity="0.176986" d="M52.9958 63.4367L59.6906 63.0036C60.2783 62.9661 60.7547 62.4862 60.7226 61.9307L60.6148 59.6393C60.6089 59.537 60.587 59.4397 60.5516 59.3493C61.5222 58.4975 62.3781 57.5298 63.059 56.4695C64.0438 54.9429 64.7008 53.243 64.934 51.3866C65.8781 44.0252 59.7249 37.4181 51.2072 36.6732C47.7599 36.3718 44.4458 37.0687 41.6591 38.4932C49.0861 41.8659 54.1712 51.4627 53.3811 59.7653L52.9958 63.4367Z" fill="#444444"/>
<path d="M54.1591 37.6108C54.1591 37.6108 55.1976 39.9369 51.8441 39.834C48.4906 39.7311 47.5052 39.5745 47.5052 39.5745L47.9475 37.2188L54.1591 37.6108Z" fill="#482D1F"/>
<path d="M41.8828 33.2155C41.9933 33.2251 42.1027 33.2332 42.2108 33.24L41.874 33.2504L41.8828 33.2155ZM32.3996 29.5599L31.5371 29.3772L28.845 36.7495L35.5861 37.625L34.5798 68.4496C34.5798 68.4496 33.6686 66.3981 32.3036 62.6499C32.2731 62.6662 32.2416 62.6812 32.2089 62.6947L15.1968 69.7494C15.1252 69.7791 15.0521 69.8008 14.9786 69.8148C16.0353 72.1778 17.221 75.0347 18.4686 77.9862C21.697 85.6035 22.6358 89.234 26.4776 93.9708C30.8658 99.3705 33.9682 98.9894 35.2642 99.2234C38.1728 99.8005 40.8663 99.1613 42.4899 98.4464C44.4392 97.5951 48.0286 96.1443 50.1774 89.8343L49.4649 96.6244C49.4498 96.7261 49.4348 96.8277 49.4197 96.9294C49.3501 97.4698 49.2805 98.0101 49.1733 98.5241C49.0717 99.0701 48.938 99.6217 48.7667 100.147C48.6067 100.736 48.4034 101.267 48.2001 101.798L44.0983 102.52L97.2566 93.2311C97.4055 93.2051 97.5336 93.1304 97.6275 93.0262C105.501 86.15 109.148 81.317 108.569 78.5272C105.832 78.5909 101.928 78.704 96.8585 78.8665C93.7086 78.9674 90.5903 79.5256 87.6016 80.5234L78.2044 83.6608C70.5743 82.6184 60.401 81.276 57.9025 81.1759L58.9593 63.0504L52.9472 63.4394L51.8822 73.589C51.48 61.8639 48.9545 50.0171 48.3899 38.2828L51.7735 37.7631C53.9003 38.2138 58.3007 38.8255 58.2455 35.8976C58.2455 35.8976 52.3361 34.5944 48.1672 33.612L47.8338 33.4066C47.538 33.2276 47.2912 33.1391 46.954 33.0994C46.8843 33.0787 46.8203 33.0899 46.7562 33.1012L45.1796 33.1477L44.9591 33.1546C45.4738 33.0895 45.8273 33.014 45.9533 32.9785C48.5943 32.3156 50.8493 26.8685 51.0001 19.5475C51.0257 18.9489 50.9557 18.3671 50.9175 17.7797L50.1596 12.0049C49.9969 10.7133 49.5159 9.47769 48.7128 8.46383C48.3732 8.02852 48.0393 7.62522 47.6904 7.32355C43.6297 3.48349 37.6642 5.02878 36.6042 5.34743C36.4768 5.36985 36.3551 5.42428 36.2277 5.44671C35.0686 5.94783 34.0028 6.23447 32.8508 6.40427C32.3413 6.49396 32.0009 6.98298 32.0595 7.50076L33.3487 15.7235C33.4526 16.4974 29.3074 15.7088 29.3017 15.6768C27.1883 14.5966 26.1903 22.5949 27.3436 23.5471C28.18 24.192 30.3466 24.9328 30.9538 25.0239C31.3267 25.0903 31.6324 25.3336 31.7526 25.6425C31.8208 27.3021 32.0365 28.6079 32.3996 29.5599Z" fill="#DB9E75"/>
<path opacity="0.2" d="M58.9573 63.0665L52.9444 63.4555L49.4614 96.6449C49.4463 96.7466 49.4313 96.8483 49.4162 96.95C49.3466 97.4904 49.277 98.0308 49.1697 98.5449C49.0681 99.0909 48.9345 99.6426 48.7631 100.168C48.6031 100.757 48.3998 101.288 48.1964 101.819L44.094 102.541L97.26 93.2514C97.409 93.2253 97.5371 93.1506 97.6309 93.0464C105.505 86.1693 109.153 81.3357 108.574 78.5455C105.836 78.6092 101.932 78.7223 96.8619 78.8848C93.7115 78.9858 90.5928 79.544 87.6037 80.5419L78.2051 83.6797C70.5739 82.6371 60.3991 81.2945 57.9003 81.1944L58.9573 63.0665Z" fill="#8C2A00"/>
<path d="M19.9018 16.2296C16.2706 19.6489 13.0491 24.3009 14.2092 26.794C15.1271 28.8111 17.3748 29.5708 19.6602 30.3569C21.5043 30.9826 24.8613 31.8626 29.3842 31.3748C29.3846 31.3781 29.3849 31.3814 29.3853 31.3848C30.4704 31.3588 31.5236 31.3384 32.6087 31.3125C33.1645 31.2807 33.609 30.8063 33.5448 30.2564C33.181 29.1321 32.8172 28.0077 32.4533 26.8834C32.2079 26.3337 31.9278 25.6341 31.6981 24.8719C31.165 24.8385 29.9662 24.7092 28.9109 23.8428C27.7521 22.8915 26.9398 21.2849 27.2917 19.5394C27.5909 17.8692 28.9772 16.3708 30.5371 16.2282C31.4131 16.14 32.1705 16.5018 32.2779 16.549C33.0655 16.9527 33.7711 17.5706 34.1623 17.9467C35.5663 17.0966 37.6845 15.4364 39.1799 12.6271C39.5302 11.9932 39.908 11.0795 40.3135 9.88572C43.6313 10.0474 46.2787 9.39432 48.2558 7.92639C47.6227 7.10813 46.7402 6.42267 45.6082 5.87C43.9102 5.041 43.7207 4.93798 41.7278 4.73929C40.4803 4.61493 38.2138 4.90419 36.6341 5.35078L36.5748 5.36121C34.7833 5.87465 33.2894 6.20365 32.2966 6.37842C27.4456 7.33141 25.4429 7.02375 23.192 8.67441C22.7832 8.97744 21.8282 9.73975 21.0918 10.9917C20.0474 12.7611 19.8233 14.637 19.9018 16.2296ZM50.8575 22.1315C50.4098 26.6692 49.4021 28.488 49.5662 28.4591C49.7304 28.4303 50.1966 28.5794 53.3312 27.0703C54.8853 26.3346 56.3433 25.6158 56.8159 24.1792C57.4805 22.1475 53.844 18.8321 50.7652 16.7332C51.1003 18.6291 51.039 20.1141 50.8575 22.1315ZM50.4348 13.3413C50.7438 13.2209 50.804 12.8142 50.5402 12.6296C50.2067 12.4242 49.6697 12.1886 49.0235 12.2694C47.6991 12.4365 46.3938 13.4585 47.8821 13.6587C48.8354 13.821 49.8433 13.5445 50.4348 13.3413ZM44.3364 14.7183C44.6453 14.5979 44.7055 14.1911 44.4097 14.0121C44.0762 13.8068 43.5393 13.5712 42.8611 13.6576C41.5367 13.8247 40.237 14.8788 41.7197 15.0469C42.737 15.1979 43.7128 14.9271 44.3364 14.7183Z" fill="#482D1F"/>
<path d="M49.4231 15.6141C49.5513 16.1556 49.8019 17.0332 50.2106 17.2998C50.8083 17.7052 51.2435 15.9555 50.6732 15.0557C50.4256 14.6614 50.1672 14.617 49.9227 14.7059C49.556 14.8392 49.3506 15.2253 49.4231 15.6141ZM43.9165 17.4086C44.0142 17.9613 44.2648 18.8388 44.704 19.0943C45.3018 19.4997 45.7369 17.75 45.1667 16.8503C44.9191 16.4559 44.6606 16.4115 44.4161 16.5004C44.0494 16.6337 43.844 17.0198 43.9165 17.4086Z" fill="#482D1F"/>
<path d="M34.9642 68.5584C34.9944 68.2909 34.8019 68.0493 34.5342 68.019C34.2665 67.9886 34.025 68.1809 33.9948 68.4484L32.72 79.7301C32.6897 79.9977 32.8822 80.2392 33.1499 80.2696C33.4176 80.2999 33.6591 80.1077 33.6893 79.8401L34.9642 68.5584ZM12.3025 66.8581C12.3044 66.916 12.3167 66.9745 12.3404 67.0312L13.3084 69.3342C13.6413 70.1358 14.5647 70.5057 15.3682 70.1727C15.617 70.0696 15.7349 69.7843 15.6316 69.5356C15.5283 69.2869 15.2429 69.1688 14.9941 69.2719C14.6838 69.4006 14.3337 69.2604 14.2085 68.9589L13.3763 66.9788C13.4538 66.9186 13.5139 66.8344 13.544 66.7332C13.6207 66.4751 13.4735 66.2036 13.2153 66.1268C11.7271 65.6841 10.296 65.0077 9.02669 64.1463C8.80375 63.995 8.50044 64.053 8.34921 64.2757C8.19799 64.4985 8.25612 64.8017 8.47906 64.953C9.64978 65.7474 10.9476 66.3932 12.3025 66.8581ZM31.3333 59.0991C31.339 59.1202 31.3462 59.1411 31.3549 59.1619L32.3228 61.4649C32.4516 61.7752 32.3116 62.125 32.012 62.2492C31.7632 62.3523 31.6452 62.6376 31.7485 62.8863C31.8518 63.135 32.1372 63.2531 32.386 63.15C33.1878 62.8177 33.5573 61.8948 33.2229 61.0896L32.2542 58.7846C32.2167 58.6953 32.1556 58.623 32.0813 58.5719C32.3779 58.0492 32.5917 57.5985 32.7571 57.1503C32.9057 56.7479 33.0178 56.3425 33.124 55.8416C33.1964 55.5003 33.238 55.2724 33.3841 54.4414C33.4307 54.1763 33.2534 53.9234 32.9881 53.8767C32.7227 53.8299 32.4699 54.007 32.4233 54.2722C32.2795 55.0899 32.2387 55.3134 32.1697 55.6388C32.0726 56.0968 31.9727 56.458 31.8419 56.8124C31.6669 57.2865 31.4266 57.7723 31.0615 58.3844C30.9236 58.6156 30.9993 58.9149 31.2308 59.0529C31.2638 59.0726 31.2982 59.0879 31.3333 59.0991ZM39.5446 33.0584C40.8256 33.394 41.8006 34.215 43.6819 34.0746C45.2171 34.1674 46.3924 33.5314 46.9763 33.0985C46.9066 33.0778 46.8425 33.0891 46.7785 33.1003L45.2018 33.1469C44.4653 33.2765 43.2592 33.3568 41.8144 33.2151L39.5446 33.0584Z" fill="#482D1F"/>
<path d="M46.7399 25.3218C46.5043 25.2972 45.9259 25.2009 45.7676 24.8656C45.7563 24.8016 45.7073 24.7112 45.728 24.6415C45.8221 24.4268 46.2555 24.4496 46.8433 24.4122C47.8852 24.3278 48.7009 24.0851 48.7009 24.0851C48.7009 24.0851 48.5579 24.7706 48.426 24.9589C48.1642 25.5332 47.0828 25.3934 46.7399 25.3218Z" fill="#482D1F"/>
<path d="M48.0816 18.892L48.0715 18.8458L48.0782 18.8686L48.0816 18.892ZM49.0608 22.203L49.0691 22.2383C49.1309 22.5877 48.9491 22.9542 48.6108 23.0736C48.548 23.0911 48.5127 23.0999 48.4773 23.1085C48.1426 23.1901 47.9002 23.2362 47.028 23.3898C46.8512 23.4209 46.6826 23.3029 46.6513 23.1261C46.6201 22.9493 46.7381 22.7808 46.9149 22.7496C47.7716 22.5988 48.0073 22.554 48.3229 22.477C48.3558 22.469 48.3885 22.4608 48.4215 22.4524C48.4143 22.4537 48.4345 22.4118 48.4305 22.3638L47.4479 19.0292L47.4378 18.983L47.1682 17.0833C47.143 16.9055 47.2666 16.7411 47.4444 16.716C47.6221 16.6909 47.7867 16.8146 47.8119 16.9923L48.0782 18.8686L49.0608 22.203Z" fill="#482D1F"/>
</g>
<defs>
<clipPath id="clip0_401_2315">
<rect width="72" height="72" rx="36" fill="white"/>
</clipPath>
</defs>
</svg>
